<?xml version="1.0" encoding="UTF-8" standalone="no"?>
<!-- Created with Inkscape (http://www.inkscape.org/) -->

<svg
   xmlns:dc="http://purl.org/dc/elements/1.1/"
   xmlns:cc="http://creativecommons.org/ns#"
   xmlns:rdf="http://www.w3.org/1999/02/22-rdf-syntax-ns#"
   xmlns:svg="http://www.w3.org/2000/svg"
   xmlns="http://www.w3.org/2000/svg"
   xmlns:sodipodi="http://sodipodi.sourceforge.net/DTD/sodipodi-0.dtd"
   xmlns:inkscape="http://www.inkscape.org/namespaces/inkscape"
   width="45.454281mm"
   height="21.115799mm"
   viewBox="0 0 45.454281 21.115799"
   version="1.1"
   id="svg2570"
   inkscape:version="0.92.4 (unknown)"
   sodipodi:docname="k23v_v2.svg">
  <defs
     id="defs2564" />
  <sodipodi:namedview
     id="base"
     pagecolor="#ffffff"
     bordercolor="#666666"
     borderopacity="1.0"
     inkscape:pageopacity="0.0"
     inkscape:pageshadow="2"
     inkscape:zoom="5.6"
     inkscape:cx="106.88704"
     inkscape:cy="80.10366"
     inkscape:document-units="mm"
     inkscape:current-layer="layer1"
     showgrid="false"
     fit-margin-top="5"
     fit-margin-left="5"
     fit-margin-right="5"
     fit-margin-bottom="5"
     inkscape:window-width="1920"
     inkscape:window-height="1016"
     inkscape:window-x="0"
     inkscape:window-y="27"
     inkscape:window-maximized="1">
    <inkscape:grid
       type="xygrid"
       id="grid3190" />
  </sodipodi:namedview>
  <metadata
     id="metadata2567">
    <rdf:RDF>
      <cc:Work
         rdf:about="">
        <dc:format>image/svg+xml</dc:format>
        <dc:type
           rdf:resource="http://purl.org/dc/dcmitype/StillImage" />
        <dc:title></dc:title>
      </cc:Work>
    </rdf:RDF>
  </metadata>
  <g
     inkscape:label="Layer 1"
     inkscape:groupmode="layer"
     id="layer1"
     transform="translate(-394.55857,-254.6921)">
    <g
       transform="translate(218.4214,290.25576)"
       id="g2533">
      <path
         sodipodi:nodetypes="ccccccccccccccc"
         inkscape:connector-curvature="0"
         id="path2346"
         d="m 184.60383,-22.91798 v 2.38125 l 1.32292,1.322917 h 1.05834 l 1.32292,-1.322917 v -2.38125 h -0.52917 l -0.52917,0.529167 v 1.326369 l -0.79375,0.79375 v 0 l -0.79375,-0.79375 v -1.326369 L 185.133,-22.91798 Z"
         style="fill:#0057b5;fill-opacity:1;fill-rule:evenodd;stroke:none;stroke-width:0.26458332px;stroke-linecap:butt;stroke-linejoin:miter;stroke-opacity:1" />
      <path
         sodipodi:nodetypes="cccccccccccccc"
         style="fill:#d40000;fill-opacity:1;fill-rule:evenodd;stroke:none;stroke-width:0.065;stroke-linecap:butt;stroke-linejoin:miter;stroke-miterlimit:4;stroke-dasharray:none;stroke-opacity:1"
         d="m 181.42884,-30.322865 h 1.05833 v 2.910417 l 1.32292,-1.322916 h 0.52917 l 0.52916,0.529166 -1.32292,1.322916 1.32292,1.322917 -0.52916,0.529167 h -0.52917 l -1.32292,-1.322917 v 1.322917 h -1.05833 z"
         id="path2348"
         inkscape:connector-curvature="0" />
      <path
         sodipodi:nodetypes="cccccccccccccc"
         style="fill:#d40000;fill-opacity:1;fill-rule:evenodd;stroke:none;stroke-width:0.065;stroke-linecap:butt;stroke-linejoin:miter;stroke-miterlimit:4;stroke-dasharray:none;stroke-opacity:1"
         d="m 185.66217,-28.735165 -0.52917,0.529167 v 2.646034 l 0.52917,0.529166 h 2.64583 l 0.52917,-0.529166 v -2.646034 l -0.52917,-0.529167 z m 0.52917,1.058133 h 1.5875 v 1.5875 h -1.5875 z"
         id="path2350"
         inkscape:connector-curvature="0" />
      <path
         style="fill:#d40000;fill-opacity:1;fill-rule:evenodd;stroke:none;stroke-width:0.065;stroke-linecap:butt;stroke-linejoin:miter;stroke-miterlimit:4;stroke-dasharray:none;stroke-opacity:1"
         d="m 189.10175,-25.030999 1e-5,-3.175 0.52916,-0.529166 h 2.64582 l 0.52917,0.529166 v 3.175 l -1.05834,1e-6 1e-5,-2.645834 H 191.483 l -1e-5,1.322917 h -1.05832 l 1e-5,-1.322917 h -0.26459 l -1e-5,2.645834 z"
         id="path2352"
         inkscape:connector-curvature="0"
         sodipodi:nodetypes="ccccccccccccccc" />
      <path
         sodipodi:nodetypes="ccccccccccccccc"
         style="fill:#d40000;fill-opacity:1;fill-rule:evenodd;stroke:none;stroke-width:0.065;stroke-linecap:butt;stroke-linejoin:miter;stroke-miterlimit:4;stroke-dasharray:none;stroke-opacity:1"
         d="m 193.0705,-30.322665 v 4.7627 l 0.52917,0.529166 2.64583,10e-7 0.52916,-0.529166 v -2.646034 l -0.52916,-0.529167 -2.11666,-2.01e-4 v -1.5875 z m 1.05834,2.645633 h 1.5875 v 1.5875 h -1.5875 z"
         id="path2354"
         inkscape:connector-curvature="0" />
      <path
         sodipodi:nodetypes="ccccc"
         style="fill:#d40000;fill-opacity:1;fill-rule:evenodd;stroke:none;stroke-width:0.065;stroke-linecap:butt;stroke-linejoin:miter;stroke-miterlimit:4;stroke-dasharray:none;stroke-opacity:1"
         d="m 197.03925,-28.735165 h 1.05833 v 3.704166 h -1.05833 z"
         id="path2356"
         inkscape:connector-curvature="0" />
      <path
         style="fill:#d40000;fill-opacity:1;fill-rule:evenodd;stroke:none;stroke-width:0.065;stroke-linecap:butt;stroke-linejoin:miter;stroke-miterlimit:4;stroke-dasharray:none;stroke-opacity:1"
         d="m 198.36217,-25.031198 v -3.175 l 0.52917,-0.529166 2.64583,-1e-6 0.52917,0.529166 v 3.175 l -1.05834,1e-6 v -2.645834 h -1.5875 v 2.645834 z"
         id="path2358"
         inkscape:connector-curvature="0"
         sodipodi:nodetypes="ccccccccccc" />
      <path
         sodipodi:nodetypes="ccccccccccccccc"
         style="fill:#d40000;fill-opacity:1;fill-rule:evenodd;stroke:none;stroke-width:0.065;stroke-linecap:butt;stroke-linejoin:miter;stroke-miterlimit:4;stroke-dasharray:none;stroke-opacity:1"
         d="m 202.86009,-28.735165 -0.52916,0.529167 -1e-5,2.645834 0.52916,0.529166 3.70417,-1.96e-4 v -0.529166 l -0.52916,-0.529172 v -2.116466 l -0.52917,-0.529167 z m 0.52916,1.058133 h 1.5875 v 1.5875 h -1.5875 z"
         id="path2360"
         inkscape:connector-curvature="0" />
      <path
         style="fill:#d40000;fill-opacity:1;fill-rule:evenodd;stroke:none;stroke-width:0.065;stroke-linecap:butt;stroke-linejoin:miter;stroke-miterlimit:4;stroke-dasharray:none;stroke-opacity:1"
         d="m 206.29967,-28.206194 0,-0.529161 0.52917,-5e-6 v -1.5875 h 1.05833 v 5.291667 h -1.05833 v -2.645834 z"
         id="path2362"
         inkscape:connector-curvature="0"
         sodipodi:nodetypes="ccccccccc" />
      <path
         inkscape:connector-curvature="0"
         id="path2364"
         d="m 208.68096,-28.73536 3.17499,-1e-6 0.52916,0.529166 -4e-5,1.322917 -0.52916,0.529167 -2.38124,1e-6 v 0.264583 h 2.38128 l 4e-5,1.058334 -2.91045,-1e-6 -0.52917,-0.529167 -4e-5,-1.322916 0.52917,-0.529166 h 2.38125 v -0.264584 h -2.64583 z"
         style="fill:#000000;fill-opacity:1;fill-rule:evenodd;stroke:none;stroke-width:0.065;stroke-linecap:butt;stroke-linejoin:miter;stroke-miterlimit:4;stroke-dasharray:none;stroke-opacity:1"
         sodipodi:nodetypes="ccccccccccccccccc" />
      <path
         inkscape:connector-curvature="0"
         id="path2366"
         d="m 212.64974,-28.735361 h 2.6458 l 0.52917,0.529166 -1e-5,2.645834 -0.52917,0.529167 h -3.17496 l -3e-5,-1.058333 h 2.64583 v -0.264583 h -1.32292 v -1.058333 h 1.32292 v -0.264584 h -2.11667 z"
         style="fill:#000000;fill-opacity:1;fill-rule:evenodd;stroke:none;stroke-width:0.065;stroke-linecap:butt;stroke-linejoin:miter;stroke-miterlimit:4;stroke-dasharray:none;stroke-opacity:1"
         sodipodi:nodetypes="ccccccccccccccc" />
      <path
         inkscape:connector-curvature="0"
         id="path2368"
         d="m 188.83717,-22.914526 h 1.05833 v 3.704166 h -1.05833 z"
         style="fill:#0057b5;fill-opacity:1;fill-rule:evenodd;stroke:none;stroke-width:0.065;stroke-linecap:butt;stroke-linejoin:miter;stroke-miterlimit:4;stroke-dasharray:none;stroke-opacity:1"
         sodipodi:nodetypes="ccccc" />
      <path
         inkscape:connector-curvature="0"
         id="path2370"
         d="m 190.42467,-24.502027 h 1.05833 v 2.910417 l 1.32292,-1.322916 h 0.52917 l 0.52916,0.529166 -1.32292,1.322916 1.32292,1.322917 -0.52916,0.529167 h -0.52917 l -1.32292,-1.322917 v 1.322917 h -1.05833 z"
         style="fill:#0057b5;fill-opacity:1;fill-rule:evenodd;stroke:none;stroke-width:0.065;stroke-linecap:butt;stroke-linejoin:miter;stroke-miterlimit:4;stroke-dasharray:none;stroke-opacity:1"
         sodipodi:nodetypes="cccccccccccccc" />
      <path
         sodipodi:nodetypes="ccccccccc"
         inkscape:connector-curvature="0"
         id="path2372"
         d="m 194.12884,-22.38536 v -0.529167 l 0.52915,1.51e-4 v -1.5875 h 1.05833 v 5.291667 h -1.05833 v -2.645834 z"
         style="fill:#0057b5;fill-opacity:1;fill-rule:evenodd;stroke:none;stroke-width:0.065;stroke-linecap:butt;stroke-linejoin:miter;stroke-miterlimit:4;stroke-dasharray:none;stroke-opacity:1" />
      <path
         sodipodi:nodetypes="ccccccccccc"
         inkscape:connector-curvature="0"
         id="path2374"
         d="m 196.24549,-22.914377 v 3.175 l 0.52917,0.529166 2.64583,1e-6 0.52917,-0.529166 v -3.175 l -1.05834,-1e-6 v 2.645834 h -1.5875 v -2.645834 z"
         style="fill:#0057b5;fill-opacity:1;fill-rule:evenodd;stroke:none;stroke-width:0.065;stroke-linecap:butt;stroke-linejoin:miter;stroke-miterlimit:4;stroke-dasharray:none;stroke-opacity:1" />
      <path
         inkscape:connector-curvature="0"
         id="path2376"
         d="m 201.00799,-22.914376 -0.52916,0.529167 -10e-6,2.645834 0.52916,0.529166 3.70416,2.01e-4 1e-5,-0.529367 -0.52916,-0.529368 v -2.116466 l -0.52917,-0.529167 z m 0.52916,1.058133 h 1.5875 v 1.5875 h -1.5875 z"
         style="fill:#0057b5;fill-opacity:1;fill-rule:evenodd;stroke:none;stroke-width:0.065;stroke-linecap:butt;stroke-linejoin:miter;stroke-miterlimit:4;stroke-dasharray:none;stroke-opacity:1"
         sodipodi:nodetypes="ccccccccccccccc" />
      <path
         inkscape:connector-curvature="0"
         id="path2378"
         d="m 204.71217,-24.502027 h 1.05833 v 5.291667 h -0.52917 v -0.79375 l -0.52917,-0.529167 z"
         style="fill:#0057b5;fill-opacity:1;fill-rule:evenodd;stroke:none;stroke-width:0.065;stroke-linecap:butt;stroke-linejoin:miter;stroke-miterlimit:4;stroke-dasharray:none;stroke-opacity:1"
         sodipodi:nodetypes="ccccccc" />
      <path
         sodipodi:nodetypes="ccccc"
         style="fill:#0057b5;fill-opacity:1;fill-rule:evenodd;stroke:none;stroke-width:0.065;stroke-linecap:butt;stroke-linejoin:miter;stroke-miterlimit:4;stroke-dasharray:none;stroke-opacity:1"
         d="m 206.29967,-22.914526 h 1.05833 v 3.704166 h -1.05833 z"
         id="path2380"
         inkscape:connector-curvature="0" />
      <path
         style="fill:#0057b5;fill-opacity:1;fill-rule:evenodd;stroke:none;stroke-width:0.065;stroke-linecap:butt;stroke-linejoin:miter;stroke-miterlimit:4;stroke-dasharray:none;stroke-opacity:1"
         d="m 208.41633,-22.914376 -0.52917,0.529166 v 2.645834 l 0.52917,0.529166 2.64583,0.0033 v -1.058333 l -2.11667,-0.0033 v -0.264583 l 2.11667,0.0031 0.52917,-0.529166 v -1.322917 l -0.52917,-0.529167 z m 0.52916,1.058333 1.5875,0.0021 v 0.264583 l -1.5875,-0.0021 z"
         id="path2382"
         inkscape:connector-curvature="0"
         sodipodi:nodetypes="cccccccccccccccccc" />
      <path
         sodipodi:nodetypes="ccccccccccc"
         inkscape:connector-curvature="0"
         id="path2384"
         d="m 212.12049,-19.210209 v -3.175 l 0.52917,-0.529166 2.64583,-1e-6 0.52917,0.529166 v 3.175 l -1.05834,1e-6 v -2.645834 h -1.5875 v 2.645834 z"
         style="fill:#0057b5;fill-opacity:1;fill-rule:evenodd;stroke:none;stroke-width:0.065;stroke-linecap:butt;stroke-linejoin:miter;stroke-miterlimit:4;stroke-dasharray:none;stroke-opacity:1" />
    </g>
    <text
       xml:space="preserve"
       style="font-style:normal;font-weight:normal;font-size:7.05555534px;line-height:1.25em;font-family:sans-serif;letter-spacing:0px;word-spacing:0px;fill:#000000;fill-opacity:1;stroke:none;stroke-width:0.26458332px;stroke-linecap:butt;stroke-linejoin:miter;stroke-opacity:1"
       x="398.23352"
       y="226.36305"
       id="text3163"><tspan
         sodipodi:role="line"
         id="tspan3161"
         x="398.23352"
         y="226.36305"
         style="stroke-width:0.26458332px">#d40000</tspan><tspan
         sodipodi:role="line"
         x="398.23352"
         y="235.1825"
         style="stroke-width:0.26458332px"
         id="tspan3165">#000000</tspan><tspan
         sodipodi:role="line"
         x="398.23352"
         y="244.00194"
         style="stroke-width:0.26458332px"
         id="tspan3167">#0057b5</tspan><tspan
         sodipodi:role="line"
         x="398.23352"
         y="252.82138"
         style="stroke-width:0.26458332px"
         id="tspan3169">#ffffff</tspan></text>
  </g>
</svg>
